<svg width="83" height="59" viewBox="0 0 83 59" fill="none" xmlns="http://www.w3.org/2000/svg">
<g clip-path="url(#clip0_2044_577)">
<path d="M11.7479 12.5019C11.6759 14.2712 11.935 16.6604 11.6322 19.0278C11.3076 21.5643 9.03497 23.6121 6.50907 23.693C4.69845 23.7514 2.88453 23.695 1.07325 23.7215C0.647537 23.7275 0.578125 23.5743 0.578125 23.1923C0.578125 22.3926 0.579444 21.6346 0.579444 20.8117C0.579444 20.317 0.692484 20.1605 1.2048 20.1711C2.83759 20.2043 4.47172 20.1843 6.10518 20.1777C7.44049 20.1724 8.25691 19.3753 8.26087 18.0385C8.27208 14.0185 8.27274 9.99792 8.26878 5.97798C8.26746 4.5211 7.45374 3.69284 5.97628 3.74721C5.25109 3.77374 5.0574 3.60994 5.0574 2.84071C5.0574 2.07147 5.06732 1.34866 5.06732 0.614563C5.06732 0.23061 5.16251 0.0893614 5.577 0.0681412C9.07658 -0.112895 11.7195 2.36656 11.7459 5.90106C11.7604 7.89845 11.7486 9.8958 11.7486 12.5019H11.7479Z" fill="#2727E6"/>
<path d="M13.6284 9.72428C13.6284 6.7541 13.6489 3.78392 13.6125 0.814397C13.6046 0.181768 13.8035 0.0285843 14.3872 0.0677094C15.0853 0.0677094 15.8191 0.0683722 16.5297 0.0683722C17.0354 0.0683722 17.1736 0.201662 17.1696 0.709625C17.1451 3.60288 17.1782 6.49615 17.1418 9.38875C17.1339 10.0161 17.3276 10.1653 17.9153 10.1421C19.088 10.097 20.2634 10.1388 21.4367 10.1136C21.84 10.1049 21.9602 10.2355 21.9602 10.6374C21.9602 11.5141 21.955 12.3351 21.955 13.1713C21.955 13.6341 21.7804 13.7177 21.3733 13.711C20.1741 13.6912 18.9736 13.7349 17.7752 13.6958C17.2496 13.6785 17.1445 13.8656 17.1531 14.3483C17.1802 15.7814 17.1405 17.2164 17.1683 18.6494C17.1776 19.1176 17.0559 19.2741 16.5747 19.2482C15.7781 19.2482 14.9736 19.2482 14.2022 19.2482C13.7044 19.2754 13.6165 19.0838 13.6191 18.6328C13.637 15.6627 13.6284 12.6931 13.629 9.72296L13.6284 9.72428Z" fill="#2727E6"/>
<path d="M0.589379 9.68211C0.589379 6.71193 0.607892 3.74241 0.574175 0.772889C0.567568 0.178721 0.73547 0.0666504 1.30133 0.0666504C2.05162 0.0666504 2.77349 0.0686404 3.52048 0.0686404C3.9733 0.0686404 4.12931 0.161479 4.12931 0.658832C4.12931 1.59915 4.11807 2.50168 4.11807 3.42344C4.11939 8.39034 4.14451 13.3572 4.14451 18.3234C4.14451 19.1351 3.91843 19.2505 3.17541 19.2505C2.56262 19.2505 1.95247 19.2478 1.34034 19.2478C0.728198 19.2478 0.565584 19.147 0.573515 18.5137C0.611855 15.5701 0.590704 12.6258 0.590704 9.68145L0.589379 9.68211Z" fill="#2727E6"/>
<path d="M18.7013 20.1829C20.2052 20.1829 21.7091 20.1962 23.213 20.1743C23.6083 20.1683 23.7332 20.2698 23.7332 20.6829C23.7332 21.5603 23.7339 22.3838 23.7339 23.2141C23.7339 23.6359 23.5983 23.7167 23.2123 23.7148C20.2045 23.7002 17.1967 23.6995 14.1889 23.7148C13.7765 23.7167 13.6191 23.6352 13.6191 23.175C13.6191 22.3467 13.6191 21.5702 13.6191 20.7207C13.6191 20.2638 13.7408 20.1743 14.1896 20.1743C15.6935 20.1962 17.1974 20.1829 18.7013 20.1829Z" fill="#2727E6"/>
<path d="M20.9276 3.67822C20.1627 3.67822 19.3973 3.66297 18.6331 3.68485C18.2411 3.69613 18.0996 3.57146 18.0996 3.16098C18.0996 2.27105 18.1022 1.42224 18.1022 0.552863C18.1022 0.180847 18.2385 0.0687769 18.5974 0.0720925C20.1522 0.0860182 21.7076 0.0827026 23.2624 0.074082C23.5619 0.0720925 23.7305 0.0754081 23.7305 0.484563C23.7305 1.40499 23.7357 2.28697 23.7357 3.24652C23.747 3.65501 23.5486 3.69612 23.2221 3.6895C22.4579 3.67358 21.6924 3.68419 20.9276 3.68419V3.67889V3.67822Z" fill="#2727E6"/>
<path d="M45.6382 9.72428C45.6382 6.7541 45.6587 3.78392 45.6223 0.814397C45.6144 0.181768 45.8134 0.0285843 46.3971 0.0677094C47.0951 0.0677094 47.8289 0.0683722 48.5395 0.0683722C49.0453 0.0683722 49.1834 0.201662 49.1794 0.709625C49.155 3.60288 49.188 6.49615 49.1517 9.38875C49.1437 10.0161 49.3374 10.1653 49.9251 10.1421C51.0978 10.097 52.2731 10.1388 53.4465 10.1136C53.8497 10.1049 53.9701 10.2355 53.9701 10.6374C53.9701 11.5141 53.9648 12.3351 53.9648 13.1713C53.9648 13.6341 53.7903 13.7177 53.383 13.711C52.1839 13.6912 50.9834 13.7349 49.7849 13.6958C49.2594 13.6785 49.1543 13.8656 49.1629 14.3483C49.19 15.7814 49.1503 17.2164 49.1781 18.6494C49.1873 19.1176 49.0657 19.2741 48.5845 19.2482C47.7879 19.2482 46.9834 19.2482 46.212 19.2482C45.7142 19.2754 45.6263 19.0838 45.6289 18.6328C45.6468 15.6627 45.6382 12.6931 45.6388 9.72296L45.6382 9.72428Z" fill="#2727E6"/>
<path d="M50.7111 20.1829C52.215 20.1829 53.7189 20.1962 55.2227 20.1743C55.6179 20.1683 55.7433 20.2698 55.7433 20.6829C55.7433 21.5603 55.7438 22.3838 55.7438 23.2141C55.7438 23.6359 55.608 23.7167 55.2222 23.7148C52.2143 23.7002 49.2065 23.6995 46.1987 23.7148C45.7863 23.7167 45.6289 23.6352 45.6289 23.175C45.6289 22.3467 45.6289 21.5702 45.6289 20.7207C45.6289 20.2638 45.7505 20.1743 46.1994 20.1743C47.7033 20.1962 49.2072 20.1829 50.7111 20.1829Z" fill="#2727E6"/>
<path d="M52.9383 3.67822C52.1735 3.67822 51.408 3.66297 50.6438 3.68485C50.2518 3.69613 50.1104 3.57146 50.1104 3.16098C50.1104 2.27105 50.113 1.42224 50.113 0.552863C50.113 0.180847 50.2491 0.0687769 50.6081 0.0720925C52.1629 0.0860182 53.7183 0.0827026 55.2733 0.074082C55.5724 0.0720925 55.7411 0.0754081 55.7411 0.484563C55.7411 1.40499 55.7466 2.28697 55.7466 3.24652C55.7576 3.65501 55.5592 3.69612 55.2327 3.6895C54.4686 3.67358 53.7032 3.68419 52.9383 3.68419V3.67889V3.67822Z" fill="#2727E6"/>
<path d="M38.7527 3.67822C37.4134 3.67822 36.0728 3.66297 34.7348 3.68485C34.0487 3.69613 33.8008 3.57146 33.8008 3.16098C33.8008 2.27105 33.8047 1.42224 33.8047 0.552863C33.8047 0.180847 34.0434 0.0687769 34.672 0.0720925C37.3956 0.0860182 40.1191 0.0827026 42.8426 0.074082C43.3675 0.0720925 43.6623 0.0754081 43.6623 0.484563C43.6623 1.40499 43.6716 2.28697 43.6716 3.24652C43.6914 3.65501 43.3444 3.69612 42.7719 3.6895C41.4333 3.67358 40.0933 3.68419 38.754 3.68419V3.67889L38.7527 3.67822Z" fill="#2727E6"/>
<path d="M33.9826 3.67822C33.584 3.67822 33.1847 3.66297 32.7861 3.68485C32.5819 3.69613 32.5078 3.57146 32.5078 3.16098C32.5078 2.27105 32.5091 1.42224 32.5091 0.552863C32.5091 0.180847 32.5799 0.0687769 32.7676 0.0720925C33.5787 0.0860182 34.3892 0.0827026 35.2003 0.074082C35.3563 0.0720925 35.4442 0.0754081 35.4442 0.484563C35.4442 1.40499 35.4469 2.28697 35.4469 3.24652C35.4528 3.65501 35.3497 3.69612 35.1791 3.6895C34.7805 3.67358 34.3812 3.68419 33.9826 3.68419V3.67889V3.67822Z" fill="#2727E6"/>
<path d="M63.8377 0H62.6592C62.6515 0 62.6438 2.83342e-07 62.6367 0.00132655C62.5207 0.0119367 62.4124 0.0238727 62.3113 0.0371354C62.1931 0.0523875 62.1035 0.152521 62.1035 0.271222V3.49804C62.1035 3.58889 62.1744 3.59022 62.2761 3.59022H62.2778C62.291 3.59022 62.3052 3.59022 62.3201 3.59022C62.4218 3.59088 62.5306 3.59419 62.6471 3.59022H64.0724C64.9948 3.59022 65.0915 3.5869 65.0915 3.80838V5.66913C65.0915 5.86543 65.2515 6.02522 65.4493 6.02522H68.3164C68.5138 6.02522 68.6748 5.86609 68.6748 5.66913V4.02191C68.6748 0.516583 65.7506 0 63.8377 0Z" fill="#2727E6"/>
<path d="M63.8377 23.7433H62.6592C62.6515 23.7433 62.6438 23.7433 62.6367 23.742C62.5207 23.7313 62.4124 23.7194 62.3113 23.7061C62.1931 23.6909 62.1035 23.5908 62.1035 23.4721V20.2453C62.1035 20.1544 62.1744 20.1531 62.2761 20.1531H62.2778C62.291 20.1531 62.3052 20.1531 62.3201 20.1531C62.4218 20.1524 62.5306 20.1491 62.6471 20.1531H64.0724C64.9948 20.1531 65.0915 20.1564 65.0915 19.9349V18.0741C65.0915 17.8779 65.2515 17.718 65.4493 17.718H68.3164C68.5138 17.718 68.6748 17.8772 68.6748 18.0741V19.7214C68.6748 23.2267 65.7506 23.7433 63.8377 23.7433Z" fill="#2727E6"/>
<path d="M61.1878 19.5775C61.1713 19.5224 61.162 19.4648 61.162 19.4058L61.157 15.289L61.1532 11.8712L61.157 8.45338L61.162 4.33666C61.162 4.27764 61.1713 4.22061 61.1878 4.16491C61.1955 4.13706 61.201 4.10921 61.201 4.08069L61.2048 0.576683C61.2048 0.331986 60.952 0.169518 60.7261 0.266999C58.9726 1.02828 57.743 2.62445 57.7068 4.68878C57.6831 4.78494 57.6743 4.90563 57.676 5.05749C57.6826 5.58598 57.6875 6.1145 57.6908 6.64302L57.6941 9.61722C57.6941 9.72729 57.6941 9.82874 57.6941 9.92424L57.6919 9.92755C57.6919 10.5755 57.693 11.2233 57.6947 11.8712C57.693 12.5191 57.6919 13.167 57.6919 13.8148L57.6941 13.8182C57.6941 13.9143 57.6941 14.0151 57.6941 14.1252L57.6908 17.0994C57.6875 17.6279 57.6826 18.1564 57.676 18.6849C57.6743 18.8368 57.6831 18.9575 57.7068 19.0536C57.743 21.118 58.9726 22.7141 60.7261 23.4754C60.9514 23.5735 61.2048 23.4111 61.2048 23.1657L61.201 19.6617C61.201 19.6332 61.1955 19.6047 61.1878 19.5775Z" fill="#2727E6"/>
<path d="M36.2623 12.3972C36.2623 10.0033 36.2807 7.55568 36.247 5.16174C36.2404 4.68296 36.4083 4.59277 36.9742 4.59277C37.7245 4.59277 38.4464 4.5941 39.1933 4.5941C39.6461 4.5941 39.8022 4.66904 39.8022 5.07023C39.8022 5.82819 39.7909 6.60936 39.7909 7.3521C39.7922 11.3561 39.8173 18.8893 39.8173 22.8933C39.8173 23.5478 39.5913 23.6407 38.8483 23.6407C38.2355 23.6407 37.6253 23.6387 37.0132 23.6387C36.401 23.6387 36.2385 23.5571 36.2464 23.0471C36.2847 20.6738 36.2636 14.7712 36.2636 12.3979L36.2623 12.3972Z" fill="#2727E6"/>
<path d="M71.0084 3.8647C71.0084 2.7009 71.0271 1.51057 70.993 0.346107C70.9864 0.113347 71.1546 0.0695801 71.7202 0.0695801C72.4705 0.0695801 73.1928 0.0702429 73.9398 0.0702429C74.3921 0.0702429 74.5483 0.106715 74.5483 0.301677C74.5483 0.670378 74.5373 1.05035 74.5373 1.4111C74.5384 3.35807 74.5636 7.02123 74.5636 8.96751C74.5636 9.28583 74.3377 9.33094 73.5946 9.33094C72.9817 9.33094 72.3716 9.33028 71.7592 9.33028C71.1475 9.33028 70.9847 9.29047 70.9924 9.04245C71.0309 7.88858 71.01 5.01856 71.01 3.86404L71.0084 3.8647Z" fill="#2727E6"/>
<path d="M71.0084 13.9276C71.0084 11.8368 71.0271 9.69882 70.993 7.60796C70.9864 7.1895 71.1546 7.1106 71.7202 7.1106C72.4705 7.1106 73.1928 7.11192 73.9398 7.11192C74.3921 7.11192 74.5483 7.17693 74.5483 7.52773C74.5483 8.19019 74.5373 8.87188 74.5373 9.5211C74.5384 13.0185 74.5636 19.5974 74.5636 23.0948C74.5636 23.6664 74.3377 23.7473 73.5946 23.7473C72.9817 23.7473 72.3716 23.746 71.7592 23.746C71.1475 23.746 70.9847 23.675 70.9924 23.2295C71.0309 21.1565 71.01 16.0012 71.01 13.9283L71.0084 13.9276Z" fill="#2727E6"/>
<path d="M82.2995 14.5337C82.2995 14.1584 82.3077 13.7664 82.3094 13.3818C82.3171 13.3168 82.3193 13.2439 82.3187 13.1623C82.3011 10.1921 82.3094 12.6935 82.3088 9.72328C82.3088 6.7531 82.2885 3.78294 82.3248 0.813423C82.3325 0.180792 82.1335 0.0276078 81.5497 0.0667328C80.8517 0.0667328 80.1184 0.0673967 79.4077 0.0673967C78.902 0.0673967 78.7635 0.200687 78.7679 0.708646C78.7921 3.60191 78.7591 6.49516 78.7954 9.38776C78.8031 10.0151 78.6096 10.1643 78.022 10.1411C76.8495 10.096 77.2398 10.1378 76.0668 10.1126C75.6633 10.104 75.543 10.2346 75.543 10.6365C75.543 11.5131 75.5485 12.3341 75.5485 13.1703C75.5485 13.6332 75.7227 13.7837 76.13 13.7771H78.664C78.7195 13.7771 78.7497 13.7771 78.7646 13.7764C78.7844 14.976 78.7701 16.1929 78.7701 17.3872C78.7701 18.73 78.7915 22.0689 78.753 23.4111C78.7453 23.6996 78.9284 23.746 79.5198 23.746C80.1118 23.746 80.7423 23.7473 81.3552 23.7473C82.0978 23.7473 82.3242 23.6949 82.3242 23.3242C82.3242 21.0596 82.299 16.7983 82.2979 14.5331L82.2995 14.5337Z" fill="#2727E6"/>
<path d="M54.3821 46.0354C54.3001 48.0334 54.5936 50.7323 54.2518 53.4054C53.8856 56.27 51.3187 58.5825 48.4657 58.6741C46.421 58.7397 44.3724 58.6763 42.3258 58.7061C41.8453 58.7132 41.7666 58.5401 41.7666 58.1083C41.7666 57.2051 41.7679 56.3499 41.7679 55.4203C41.7679 54.861 41.8955 54.6846 42.4746 54.6959C44.3189 54.733 46.1639 54.7112 48.0089 54.7032C49.5167 54.6973 50.4389 53.7967 50.4435 52.2867C50.4561 47.7463 50.4568 43.2058 50.4521 38.666C50.4502 37.0207 49.5319 36.085 47.8628 36.1467C47.0444 36.1772 46.8249 35.9915 46.8249 35.1228C46.8249 34.2541 46.8362 33.4378 46.8362 32.6089C46.8362 32.1752 46.9433 32.016 47.412 31.9922C51.3644 31.7879 54.3497 34.5877 54.3794 38.5797C54.396 40.8351 54.3827 43.0911 54.3827 46.0347L54.3821 46.0354Z" fill="#2727E6"/>
<path d="M41.7803 42.8505C41.7803 39.4964 41.8008 36.1422 41.763 32.7881C41.7551 32.117 41.9448 31.991 42.5841 31.991C43.4316 31.991 44.2466 31.993 45.0901 31.993C45.6018 31.993 45.7776 32.0978 45.7776 32.6594C45.7776 33.7218 45.7651 34.741 45.7651 35.7815C45.7664 41.3909 45.7948 47.0004 45.7948 52.6099C45.7948 53.5263 45.5397 53.6569 44.7001 53.6569C44.008 53.6569 43.3185 53.6543 42.6271 53.6543C41.9356 53.6543 41.7518 53.5402 41.7611 52.8254C41.8047 49.5004 41.7803 46.1755 41.7803 42.8498V42.8505Z" fill="#2727E6"/>
<path d="M28.584 42.8505C28.584 39.4964 28.6045 36.1422 28.5668 32.7881C28.5588 32.117 28.7485 31.991 29.3878 31.991C30.2353 31.991 31.0503 31.993 31.8938 31.993C32.4055 31.993 32.5813 32.0978 32.5813 32.6594C32.5813 33.7218 32.5688 34.741 32.5688 35.7815C32.5701 41.3909 32.5985 47.0004 32.5985 52.6099C32.5985 53.5263 32.3434 53.6569 31.5038 53.6569C30.8117 53.6569 30.1222 53.6543 29.4308 53.6543C28.7393 53.6543 28.5555 53.5402 28.5648 52.8254C28.6084 49.5004 28.584 46.1755 28.584 42.8498V42.8505Z" fill="#2727E6"/>
<path d="M14.7807 42.8981C14.7807 39.5439 14.8039 36.1891 14.7629 32.835C14.7543 32.1201 14.9791 31.9477 15.6375 31.9914C16.4261 31.9914 17.2544 31.9921 18.0569 31.9921C18.6281 31.9921 18.7841 32.1426 18.7795 32.7163C18.7517 35.9835 18.7887 39.2515 18.7484 42.5187C18.7398 43.2276 18.958 43.3954 19.6216 43.3702C20.9457 43.3192 22.2731 43.3669 23.5985 43.3377C24.054 43.3278 24.1895 43.4756 24.1895 43.9292C24.1895 44.9193 24.1835 45.8463 24.1835 46.7913C24.1835 47.3145 23.9865 47.4087 23.5271 47.4007C22.1726 47.3782 20.8168 47.4279 19.4636 47.3835C18.87 47.3642 18.751 47.5758 18.7616 48.1209C18.792 49.7396 18.747 51.3596 18.7788 52.9783C18.7887 53.5069 18.6519 53.6839 18.1085 53.6547C17.2088 53.6547 16.2999 53.6547 15.4292 53.6547C14.8667 53.6852 14.7675 53.4691 14.7708 52.9598C14.7914 49.6056 14.7814 46.2515 14.7814 42.8967L14.7807 42.8981Z" fill="#2727E6"/>
<path d="M20.5098 54.7106C22.208 54.7106 23.9069 54.7252 25.6051 54.7007C26.0514 54.6941 26.1928 54.8081 26.1928 55.2748C26.1928 56.2656 26.1935 57.1959 26.1935 58.1332C26.1935 58.6091 26.0408 58.7006 25.6045 58.699C22.2073 58.6819 18.8102 58.6813 15.4137 58.699C14.9483 58.7012 14.7705 58.6085 14.7705 58.0891C14.7705 57.1545 14.7705 56.2772 14.7705 55.3183C14.7705 54.8022 14.9073 54.7007 15.415 54.7007C17.1133 54.7252 18.8122 54.7106 20.5104 54.71L20.5098 54.7106Z" fill="#2727E6"/>
<path d="M23.0237 36.0697C22.1596 36.0697 21.2957 36.0518 20.4323 36.077C19.9901 36.0896 19.8301 35.949 19.8301 35.4855C19.8301 34.4809 19.8328 33.5213 19.8328 32.5399C19.8328 32.1201 19.9868 31.9934 20.392 31.9974C22.1484 32.0133 23.9048 32.01 25.6606 31.9994C25.999 31.9974 26.1888 32.0007 26.1888 32.463C26.1888 33.5027 26.1947 34.4981 26.1947 35.5823C26.2073 36.0439 25.9838 36.0903 25.6143 36.0823C24.751 36.0644 23.887 36.0763 23.023 36.0763V36.0704L23.0237 36.0697Z" fill="#2727E6"/>
<path d="M36.6577 58.7392C35.8579 58.7392 35.0573 58.721 34.2581 58.7464C33.8483 58.7591 33.7002 58.6185 33.7002 58.1547C33.7002 57.1501 33.7028 56.1906 33.7028 55.2091C33.7028 54.7895 33.8456 54.6629 34.2205 54.6668C35.8466 54.6828 37.4735 54.6795 39.0996 54.6688C39.413 54.6668 39.5888 54.6701 39.5888 55.1324C39.5888 56.1724 39.5941 57.1677 39.5941 58.2518C39.606 58.7133 39.3984 58.7596 39.0567 58.7519C38.2574 58.7337 37.457 58.7458 36.6571 58.7458V58.7398L36.6577 58.7392Z" fill="#2727E6"/>
<path d="M32.0371 58.7392C31.107 58.7392 30.1762 58.721 29.2468 58.7464C28.7701 58.7591 28.5977 58.6185 28.5977 58.1547C28.5977 57.1501 28.6003 56.1906 28.6003 55.2091C28.6003 54.7895 28.7662 54.6629 29.2025 54.6668C31.0938 54.6828 32.985 54.6795 34.8763 54.6688C35.2405 54.6668 35.4455 54.6701 35.4455 55.1324C35.4455 56.1724 35.4521 57.1677 35.4521 58.2518C35.4659 58.7133 35.2247 58.7596 34.8274 58.7519C33.8973 58.7337 32.9672 58.7458 32.0371 58.7458V58.7392Z" fill="#2727E6"/>
<path d="M56.4979 42.8981C56.4979 39.5439 56.5209 36.1891 56.4797 32.835C56.4715 32.1201 56.6963 31.9477 57.3542 31.9914C58.143 31.9914 58.9714 31.9921 59.7739 31.9921C60.345 31.9921 60.5011 32.1426 60.4967 32.7163C60.4687 35.9835 60.5055 39.2515 60.4654 42.5187C60.4566 43.2276 60.6748 43.3954 61.3388 43.3702C62.6629 43.3192 63.9904 43.3669 65.3156 43.3377C65.7708 43.3278 65.9065 43.4756 65.9065 43.9292C65.9065 44.9193 65.9005 45.8463 65.9005 46.7913C65.9005 47.3145 65.7037 47.4087 65.2442 47.4007C63.8898 47.3782 62.5338 47.4279 61.1805 47.3835C60.5868 47.3642 60.4681 47.5758 60.4786 48.1209C60.5088 49.7396 60.4643 51.3596 60.4956 52.9783C60.5055 53.5069 60.3686 53.6839 59.8255 53.6547C58.9257 53.6547 58.0171 53.6547 57.1465 53.6547C56.5836 53.6852 56.4847 53.4691 56.488 52.9598C56.5083 49.6056 56.4984 46.2515 56.4984 42.8967L56.4979 42.8981Z" fill="#2727E6"/>
<path d="M62.2264 54.7106C63.9243 54.7106 65.6234 54.7252 67.3218 54.7007C67.7682 54.6941 67.9094 54.8081 67.9094 55.2748C67.9094 56.2656 67.91 57.1959 67.91 58.1332C67.91 58.6091 67.7572 58.7006 67.3213 58.699C63.9238 58.6819 60.5268 58.6813 57.1304 58.699C56.6648 58.7012 56.4873 58.6085 56.4873 58.0891C56.4873 57.1545 56.4873 56.2772 56.4873 55.3183C56.4873 54.8022 56.6242 54.7007 57.1315 54.7007C58.83 54.7252 60.529 54.7106 62.2269 54.71L62.2264 54.7106Z" fill="#2727E6"/>
<path d="M64.7414 36.0697C63.8773 36.0697 63.0133 36.0518 62.1497 36.077C61.7078 36.0896 61.5479 35.949 61.5479 35.4855C61.5479 34.4809 61.55 33.5213 61.55 32.5399C61.55 32.1201 61.7045 31.9934 62.1096 31.9974C63.8658 32.0133 65.6225 32.01 67.3782 31.9994C67.7168 31.9974 67.9064 32.0007 67.9064 32.463C67.9064 33.5027 67.9125 34.4981 67.9125 35.5823C67.9246 36.0439 67.7014 36.0903 67.332 36.0823C66.4685 36.0644 65.6044 36.0763 64.7403 36.0763V36.0704L64.7414 36.0697Z" fill="#2727E6"/>
<path d="M12.7503 48.3305C12.7503 47.9067 12.7596 47.4644 12.7615 47.0294C12.7701 46.9564 12.7728 46.8742 12.7721 46.782C12.7516 43.4279 12.7615 46.2522 12.7615 42.8981C12.7615 39.5439 12.7384 36.1891 12.7793 32.835C12.788 32.1201 12.5632 31.9477 11.9048 31.9914C11.1162 31.9914 10.2879 31.9921 9.48535 31.9921C8.91419 31.9921 8.75819 32.1426 8.76281 32.7163C8.79057 35.9835 8.75358 39.2515 8.79387 42.5187C8.8025 43.2276 8.58433 43.3954 7.92066 43.3702C6.59656 43.3191 7.03745 43.3669 5.71209 43.3377C5.25661 43.3278 5.12109 43.4756 5.12109 43.9292C5.12109 44.9193 5.12704 45.8463 5.12704 46.7913C5.12704 47.3145 5.32404 47.4843 5.78344 47.4763H8.64518C8.70795 47.4763 8.74165 47.4763 8.75885 47.4757C8.78133 48.8304 8.76545 50.2051 8.76545 51.5533C8.76545 53.0699 8.78991 56.8402 8.74632 58.3571C8.73703 58.6835 8.94459 58.7348 9.61227 58.7348C10.28 58.7348 10.9925 58.7365 11.6853 58.7365C12.5249 58.7365 12.78 58.6769 12.78 58.259C12.78 55.701 12.7516 50.8881 12.7503 48.3305Z" fill="#2727E6"/>
<path d="M0.0194996 37.0943C0.0194996 35.53 0.0399915 33.9305 0.00231165 32.3662C-0.00562097 32.0532 0.184102 31.9941 0.823338 31.9941C1.67081 31.9941 2.48588 31.9955 3.32938 31.9955C3.84104 31.9955 4.01688 32.0445 4.01688 32.3065C4.01688 32.8018 4.00432 33.3125 4.00432 33.7979C4.00564 36.414 4.03406 41.3364 4.03406 43.9532C4.03406 44.3809 3.7789 44.4419 2.93936 44.4419C2.24724 44.4419 1.55777 44.4406 0.866306 44.4406C0.174846 44.4406 -0.00892613 44.3875 0.000328575 44.054C0.043958 42.5035 0.0194996 38.6461 0.0194996 37.095V37.0943Z" fill="#2727E6"/>
<path d="M0.0194996 49.6887C0.0194996 47.7623 0.0399915 45.7921 0.00231165 43.8657C-0.00562097 43.4804 0.184102 43.4075 0.823338 43.4075C1.67081 43.4075 2.48588 43.4088 3.32938 43.4088C3.84104 43.4088 4.01688 43.4692 4.01688 43.7914C4.01688 44.4015 4.00432 45.0302 4.00432 45.6276C4.00564 48.8498 4.03406 54.9122 4.03406 58.1338C4.03406 58.6604 3.7789 58.7354 2.93936 58.7354C2.24724 58.7354 1.55777 58.7337 0.866306 58.7337C0.174846 58.7337 -0.00892613 58.6681 0.000328575 58.2579C0.043958 56.3478 0.0194996 51.5979 0.0194996 49.688V49.6887Z" fill="#2727E6"/>
<path d="M70.3321 42.9284C70.3321 39.5883 70.3524 36.1731 70.315 32.8335C70.3068 32.1651 70.4964 32.0398 71.1357 32.0398C71.9833 32.0398 72.7984 32.0418 73.6422 32.0418C74.1534 32.0418 74.3293 32.1459 74.3293 32.7056C74.3293 33.7633 74.3166 34.8528 74.3166 35.8893C74.3183 41.4755 74.3469 51.9855 74.3469 57.5714C74.3469 58.4845 74.0913 58.6141 73.2519 58.6141C72.5599 58.6141 71.87 58.6118 71.1791 58.6118C70.4876 58.6118 70.3035 58.4977 70.3128 57.7858C70.3563 54.475 70.3321 46.2395 70.3321 42.9284Z" fill="#2727E6"/>
<path d="M82.9926 52.1966V46.0341C82.9926 43.1023 83.009 40.8563 82.9926 38.6096C82.9629 34.6341 80.1051 31.8463 76.1525 32.0492C75.6836 32.0731 75.577 32.2316 75.577 32.6639C75.577 33.4895 75.5654 34.3171 75.5654 35.1673C75.5654 36.0174 75.7842 36.217 76.6032 36.1865C78.272 36.1248 79.1905 37.0566 79.1927 38.6952C79.1949 40.532 79.1954 43.2105 79.1954 46.0467H79.1866C79.1866 47.6369 79.1921 49.6442 79.1927 51.6674C79.1921 52.7815 79.1905 53.8465 79.1894 54.8186C79.1861 55.8901 79.1795 56.9019 79.168 57.7853C79.1597 58.4971 79.3565 58.6113 79.9919 58.6113C80.6273 58.6113 81.3045 58.6135 81.963 58.6135C82.7611 58.6135 82.9926 58.4839 82.9926 57.5708C82.9926 55.0196 82.9986 53.56 82.9926 52.1953V52.1966Z" fill="#2727E6"/>
</g>
<defs>
<clipPath id="clip0_2044_577">
<rect width="83" height="59" fill="white"/>
</clipPath>
</defs>
</svg>