<svg xmlns="http://www.w3.org/2000/svg" viewBox="0 0 512 512" width="100%" height="100%">
  <path fill="currentColor" d="M256 0C114.6 0 0 114.6 0 256s114.6 256 256 256 256-114.6 256-256S397.4 0 256 0zm0 464c-114.7 0-208-93.3-208-208S141.3 48 256 48s208 93.3 208 208-93.3 208-208 208z" />
  
  <circle cx="256" cy="256" r="180" fill="none" stroke="currentColor" stroke-width="16" stroke-dasharray="24 16" />

  <g fill="currentColor" transform="translate(151.5, 190) scale(5.5)">
    
    <g>
      <path d="M11.7479 12.5019C11.6759 14.2712 11.935 16.6604 11.6322 19.0278C11.3076 21.5643 9.03497 23.6121 6.50907 23.693C4.69845 23.7514 2.88453 23.695 1.07325 23.7215C0.647537 23.7275 0.578125 23.5743 0.578125 23.1923C0.578125 22.3926 0.579444 21.6346 0.579444 20.8117C0.579444 20.317 0.692484 20.1605 1.2048 20.1711C2.83759 20.2043 4.47172 20.1843 6.10518 20.1777C7.44049 20.1724 8.25691 19.3753 8.26087 18.0385C8.27208 14.0185 8.27274 9.99792 8.26878 5.97798C8.26746 4.5211 7.45374 3.69284 5.97628 3.74721C5.25109 3.77374 5.0574 3.60994 5.0574 2.84071C5.0574 2.07147 5.06732 1.34866 5.06732 0.614563C5.06732 0.23061 5.16251 0.0893614 5.577 0.0681412C9.07658 -0.112895 11.7195 2.36656 11.7459 5.90106C11.7604 7.89845 11.7486 9.8958 11.7486 12.5019H11.7479Z" />
      <path d="M0.589379 9.68211C0.589379 6.71193 0.607892 3.74241 0.574175 0.772889C0.567568 0.178721 0.73547 0.0666504 1.30133 0.0666504C2.05162 0.0666504 2.77349 0.0686404 3.52048 0.0686404C3.9733 0.0686404 4.12931 0.161479 4.12931 0.658832C4.12931 1.59915 4.11807 2.50168 4.11807 3.42344C4.11939 8.39034 4.14451 13.3572 4.14451 18.3234C4.14451 19.1351 3.91843 19.2505 3.17541 19.2505C2.56262 19.2505 1.95247 19.2478 1.34034 19.2478C0.728198 19.2478 0.565584 19.147 0.573515 18.5137C0.611855 15.5701 0.590704 12.6258 0.590704 9.68145L0.589379 9.68211Z" />
    </g>

    <g transform="translate(-18.8, 0)">
      <path d="M38.7527 3.67822C37.4134 3.67822 36.0728 3.66297 34.7348 3.68485C34.0487 3.69613 33.8008 3.57146 33.8008 3.16098C33.8008 2.27105 33.8047 1.42224 33.8047 0.552863C33.8047 0.180847 34.0434 0.0687769 34.672 0.0720925C37.3956 0.0860182 40.1191 0.0827026 42.8426 0.074082C43.3675 0.0720925 43.6623 0.0754081 43.6623 0.484563C43.6623 1.40499 43.6716 2.28697 43.6716 3.24652C43.6914 3.65501 43.3444 3.69612 42.7719 3.6895C41.4333 3.67358 40.0933 3.68419 38.754 3.68419V3.67889L38.7527 3.67822Z" />
      <path d="M33.9826 3.67822C33.584 3.67822 33.1847 3.66297 32.7861 3.68485C32.5819 3.69613 32.5078 3.57146 32.5078 3.16098C32.5078 2.27105 32.5091 1.42224 32.5091 0.552863C32.5091 0.180847 32.5799 0.0687769 32.7676 0.0720925C33.5787 0.0860182 34.3892 0.0827026 35.2003 0.074082C35.3563 0.0720925 35.4442 0.0754081 35.4442 0.484563C35.4442 1.40499 35.4469 2.28697 35.4469 3.24652C35.4528 3.65501 35.3497 3.69612 35.1791 3.6895C34.7805 3.67358 34.3812 3.68419 33.9826 3.68419V3.67889V3.67822Z" />
      <path d="M36.2623 12.3972C36.2623 10.0033 36.2807 7.55568 36.247 5.16174C36.2404 4.68296 36.4083 4.59277 36.9742 4.59277C37.7245 4.59277 38.4464 4.5941 39.1933 4.5941C39.6461 4.5941 39.8022 4.66904 39.8022 5.07023C39.8022 5.82819 39.7909 6.60936 39.7909 7.3521C39.7922 11.3561 39.8173 18.8893 39.8173 22.8933C39.8173 23.5478 39.5913 23.6407 38.8483 23.6407C38.2355 23.6407 37.6253 23.6387 37.0132 23.6387C36.401 23.6387 36.2385 23.5571 36.2464 23.0471C36.2847 20.6738 36.2636 14.7712 36.2636 12.3979L36.2623 12.3972Z" />
    </g>

    <g transform="translate(-44.2, 0)">
      <path d="M71.0084 3.8647C71.0084 2.7009 71.0271 1.51057 70.993 0.346107C70.9864 0.113347 71.1546 0.0695801 71.7202 0.0695801C72.4705 0.0695801 73.1928 0.0702429 73.9398 0.0702429C74.3921 0.0702429 74.5483 0.106715 74.5483 0.301677C74.5483 0.670378 74.5373 1.05035 74.5373 1.4111C74.5384 3.35807 74.5636 7.02123 74.5636 8.96751C74.5636 9.28583 74.3377 9.33094 73.5946 9.33094C72.9817 9.33094 72.3716 9.33028 71.7592 9.33028C71.1475 9.33028 70.9847 9.29047 70.9924 9.04245C71.0309 7.88858 71.01 5.01856 71.01 3.86404L71.0084 3.8647Z" />
      <path d="M71.0084 13.9276C71.0084 11.8368 71.0271 9.69882 70.993 7.60796C70.9864 7.1895 71.1546 7.1106 71.7202 7.1106C72.4705 7.1106 73.1928 7.11192 73.9398 7.11192C74.3921 7.11192 74.5483 7.17693 74.5483 7.52773C74.5483 8.19019 74.5373 8.87188 74.5373 9.5211C74.5384 13.0185 74.5636 19.5974 74.5636 23.0948C74.5636 23.6664 74.3377 23.7473 73.5946 23.7473C72.9817 23.7473 72.3716 23.746 71.7592 23.746C71.1475 23.746 70.9847 23.675 70.9924 23.2295C71.0309 21.1565 71.01 16.0012 71.01 13.9283L71.0084 13.9276Z" />
      <path d="M82.2995 14.5337C82.2995 14.1584 82.3077 13.7664 82.3094 13.3818C82.3171 13.3168 82.3193 13.2439 82.3187 13.1623C82.3011 10.1921 82.3094 12.6935 82.3088 9.72328C82.3088 6.7531 82.2885 3.78294 82.3248 0.813423C82.3325 0.180792 82.1335 0.0276078 81.5497 0.0667328C80.8517 0.0667328 80.1184 0.0673967 79.4077 0.0673967C78.902 0.0673967 78.7635 0.200687 78.7679 0.708646C78.7921 3.60191 78.7591 6.49516 78.7954 9.38776C78.8031 10.0151 78.6096 10.1643 78.022 10.1411C76.8495 10.096 77.2398 10.1378 76.0668 10.1126C75.6633 10.104 75.543 10.2346 75.543 10.6365C75.543 11.5131 75.5485 12.3341 75.5485 13.1703C75.5485 13.6332 75.7227 13.7837 76.13 13.7771H78.664C78.7195 13.7771 78.7497 13.7771 78.7646 13.7764C78.7844 14.976 78.7701 16.1929 78.7701 17.3872C78.7701 18.73 78.7915 22.0689 78.753 23.4111C78.7453 23.6996 78.9284 23.746 79.5198 23.746C80.1118 23.746 80.7423 23.7473 81.3552 23.7473C82.0978 23.7473 82.3242 23.6949 82.3242 23.3242C82.3242 21.0596 82.299 16.7983 82.2979 14.5331L82.2995 14.5337Z" />
    </g>
  </g>
</svg>
